<?xml version="1.0" standalone="no"?>
<!DOCTYPE svg PUBLIC "-//W3C//DTD SVG 20010904//EN"
 "http://www.w3.org/TR/2001/REC-SVG-20010904/DTD/svg10.dtd">
<svg version="1.0" xmlns="http://www.w3.org/2000/svg"
 width="377.000000pt" height="377.000000pt" viewBox="0 0 377.000000 377.000000"
 preserveAspectRatio="xMidYMid meet">
<metadata>
Created by potrace 1.11, written by Peter Selinger 2001-2013
</metadata>
<g transform="translate(0.000000,377.000000) scale(0.100000,-0.100000)"
fill="#000000" stroke="none">
<path d="M1709 3766 c-2 -2 -30 -6 -61 -10 -77 -8 -192 -32 -296 -62 -398
-115 -753 -367 -1000 -709 -51 -71 -135 -211 -164 -275 -54 -118 -69 -155 -95
-240 -67 -212 -90 -356 -90 -570 -1 -324 53 -564 190 -848 48 -99 175 -304
207 -332 3 -3 18 -21 34 -40 101 -124 261 -268 406 -365 218 -145 462 -242
730 -291 145 -27 494 -26 634 2 12 2 48 9 81 15 73 13 260 72 335 106 30 14
71 32 90 41 19 9 79 42 134 74 354 211 607 500 779 888 39 88 94 267 111 365
3 17 8 42 11 56 18 96 23 177 20 344 -1 105 -5 201 -9 215 -3 14 -8 41 -10 60
-19 146 -89 367 -165 520 -65 130 -148 267 -181 300 -3 3 -18 22 -33 42 -64
87 -200 223 -306 308 -242 194 -567 339 -865 386 -21 3 -48 8 -60 11 -25 6
-421 14 -427 9z"/>
</g>
</svg>
